<?xml version="1.0" encoding="utf-8"?>
<!-- Generator: Adobe Illustrator 16.0.0, SVG Export Plug-In . SVG Version: 6.00 Build 0)  -->
<!DOCTYPE svg PUBLIC "-//W3C//DTD SVG 1.1//EN" "http://www.w3.org/Graphics/SVG/1.1/DTD/svg11.dtd">
<svg version="1.1" id="Layer_1" xmlns="http://www.w3.org/2000/svg" xmlns:xlink="http://www.w3.org/1999/xlink" x="0px" y="0px"
	 width="512px" height="512px" viewBox="0 0 512 512" enable-background="new 0 0 512 512" xml:space="preserve">
<path id="android-os-icon" opacity="0.5" d="M107.054,183.265c-14.042-0.008-25.422,11.396-25.427,25.426l0.02,106.485
	c0.002,14.078,11.39,25.438,25.433,25.437c14.052,0.001,25.435-11.365,25.419-25.436V208.678
	C132.493,194.651,121.098,183.254,107.054,183.265 M312.114,87.641l17.747-32.411c0.947-1.694,0.326-3.851-1.391-4.808
	c-1.73-0.917-3.869-0.294-4.785,1.411l-17.928,32.75c-31.527-14.022-68.386-13.886-99.537-0.048l-17.945-32.664
	c-0.934-1.725-3.081-2.347-4.776-1.408c-1.727,0.928-2.356,3.089-1.399,4.779l17.756,32.387
	c-34.888,17.994-57.523,52.255-57.505,91.59l227.341-0.023C369.699,139.867,346.95,105.677,312.114,87.641 M203.835,137.724
	c-5.274-0.011-9.572-4.299-9.572-9.596c0.002-5.276,4.288-9.614,9.581-9.613c5.311-0.004,9.606,4.337,9.613,9.611
	C213.459,133.418,209.153,137.722,203.835,137.724 M308.133,137.707c-5.295,0.005-9.605-4.289-9.604-9.603
	c0.018-5.261,4.303-9.604,9.607-9.622c5.268,0.016,9.588,4.355,9.584,9.629C317.73,133.412,313.427,137.707,308.133,137.707
	 M142.352,188.066l0.038,165.022c-0.012,15.011,12.129,27.126,27.133,27.129l18.495,0.008v56.344
	c-0.002,14.025,11.4,25.432,25.411,25.432c14.051,0,25.434-11.414,25.438-25.449v-56.332l34.33-0.006v56.341
	c-0.004,14.02,11.406,25.441,25.419,25.419c14.05,0.01,25.426-11.404,25.423-25.441v-56.325l18.538-0.015
	c14.968,0.006,27.142-12.127,27.146-27.139l-0.029-165.026L142.352,188.066z M430.354,208.653
	c-0.003-14.043-11.385-25.426-25.429-25.422c-14.04-0.011-25.422,11.391-25.419,25.436l0.018,106.486
	c0,14.058,11.377,25.42,25.429,25.424c14.041-0.002,25.417-11.366,25.421-25.437L430.354,208.653z"/>
</svg>
