<?xml version="1.0" encoding="utf-8"?>
<!-- Generator: Adobe Illustrator 16.0.0, SVG Export Plug-In . SVG Version: 6.00 Build 0)  -->
<!DOCTYPE svg PUBLIC "-//W3C//DTD SVG 1.1//EN" "http://www.w3.org/Graphics/SVG/1.1/DTD/svg11.dtd">
<svg version="1.1" id="Layer_1" xmlns="http://www.w3.org/2000/svg" xmlns:xlink="http://www.w3.org/1999/xlink" x="0px" y="0px"
	 width="512px" height="512px" viewBox="0 0 512 512" enable-background="new 0 0 512 512" xml:space="preserve">
<path id="copyright-3-icon" opacity="0.5" d="M256,50C142.229,50,50,142.229,50,256c0,113.77,92.229,206,206,206
	c113.771,0,206-92.23,206-206C462,142.229,369.771,50,256,50z M257.107,328.064c22.453,0,44.015-10.088,59.765-31.801l35.394,23.201
	c-24.197,34.502-59.312,50.88-95.156,50.88c-63.051,0-114.347-51.295-114.347-114.345c0-63.051,51.296-114.347,114.347-114.347
	c35.453,0,70.752,16.083,95.158,50.881l-35.396,23.203c-15.828-21.828-37.438-31.802-59.765-31.802
	c-39.735,0-72.063,32.328-72.063,72.065C185.044,295.736,217.372,328.064,257.107,328.064z"/>
</svg>
