<?xml version="1.0" encoding="utf-8"?>
<!-- Generator: Adobe Illustrator 16.0.0, SVG Export Plug-In . SVG Version: 6.00 Build 0)  -->
<!DOCTYPE svg PUBLIC "-//W3C//DTD SVG 1.1//EN" "http://www.w3.org/Graphics/SVG/1.1/DTD/svg11.dtd">
<svg version="1.1" id="Layer_1" xmlns="http://www.w3.org/2000/svg" xmlns:xlink="http://www.w3.org/1999/xlink" x="0px" y="0px"
	 width="512px" height="512px" viewBox="0 0 512 512" enable-background="new 0 0 512 512" xml:space="preserve">
<path id="coroflot-icon" opacity="0.6" fill="#FFFFFF" d="M381.982,164.226c0,14.464-11.728,26.19-26.189,26.19
	c-14.465,0-26.189-11.726-26.189-26.19c0-14.464,11.726-26.19,26.189-26.19C370.256,138.036,381.982,149.762,381.982,164.226z
	 M329.604,136.29c0,14.464-11.727,26.19-26.19,26.19c-14.463,0-26.188-11.726-26.188-26.19s11.727-26.19,26.188-26.19
	C317.877,110.1,329.604,121.826,329.604,136.29z M269.912,135.853c0,14.464-11.727,26.19-26.191,26.19
	c-14.463,0-26.189-11.726-26.189-26.19s11.726-26.19,26.189-26.19C258.186,109.663,269.912,121.389,269.912,135.853z
	 M217.533,163.025c0,14.464-11.728,26.19-26.192,26.19c-14.463,0-26.189-11.726-26.189-26.19c0-14.464,11.726-26.19,26.189-26.19
	C205.805,136.835,217.533,148.561,217.533,163.025z M183.485,211.477c0,14.464-11.727,26.19-26.192,26.19
	c-14.463,0-26.188-11.726-26.188-26.19s11.725-26.19,26.188-26.19C171.758,185.287,183.485,197.013,183.485,211.477z
	 M176.283,268.766c0,14.465-11.727,26.191-26.192,26.191c-14.463,0-26.189-11.727-26.189-26.191
	c0-14.461,11.726-26.188,26.189-26.188C164.556,242.577,176.283,254.303,176.283,268.766z M196.253,323.766
	c0,14.466-11.728,26.189-26.192,26.189c-14.463,0-26.189-11.725-26.189-26.189c0-14.463,11.726-26.188,26.189-26.188
	C184.526,297.576,196.253,309.303,196.253,323.766z M239.14,363.379c0,14.463-11.728,26.189-26.192,26.189
	c-14.464,0-26.189-11.728-26.189-26.189c0-14.465,11.725-26.191,26.189-26.191C227.412,337.188,239.14,348.914,239.14,363.379z
	 M295.447,378.764c0,14.465-11.727,26.191-26.191,26.191c-14.463,0-26.188-11.727-26.188-26.191
	c0-14.463,11.725-26.188,26.188-26.188C283.721,352.574,295.447,364.301,295.447,378.764z M352.738,366.324
	c0,14.465-11.727,26.188-26.193,26.188c-14.463,0-26.186-11.725-26.186-26.188c0-14.463,11.723-26.189,26.186-26.189
	C341.012,340.135,352.738,351.861,352.738,366.324z M397.59,329.33c0,14.465-11.727,26.191-26.193,26.191
	c-14.463,0-26.188-11.728-26.188-26.191c0-14.463,11.725-26.189,26.188-26.189C385.863,303.141,397.59,314.867,397.59,329.33z
	 M405.555,105.08c-14.463,0-26.188,11.726-26.188,26.19s11.727,26.19,26.188,26.19c14.465,0,26.191-11.726,26.191-26.19
	S420.02,105.08,405.555,105.08z M358.74,69.396c-14.463,0-26.189,11.726-26.189,26.19s11.727,26.19,26.189,26.19
	c14.465,0,26.191-11.726,26.191-26.19S373.205,69.396,358.74,69.396z M303.086,50.409c-14.463,0-26.188,11.726-26.188,26.19
	c0,14.464,11.725,26.19,26.188,26.19c14.465,0,26.191-11.726,26.191-26.19C329.277,62.135,317.551,50.409,303.086,50.409z
	 M244.813,50.409c-14.463,0-26.189,11.726-26.189,26.19c0,14.464,11.726,26.19,26.189,26.19c14.464,0,26.19-11.726,26.19-26.19
	C271.003,62.135,259.277,50.409,244.813,50.409z M189.487,69.069c-14.463,0-26.189,11.726-26.189,26.19
	c0,14.464,11.726,26.19,26.189,26.19c14.464,0,26.191-11.726,26.191-26.19C215.678,80.795,203.952,69.069,189.487,69.069z
	 M142.673,103.443c-14.464,0-26.189,11.726-26.189,26.19c0,14.464,11.725,26.19,26.189,26.19c14.464,0,26.191-11.726,26.191-26.19
	C168.864,115.169,157.137,103.443,142.673,103.443z M109.607,151.24c-14.463,0-26.188,11.726-26.188,26.19
	c0,14.464,11.726,26.19,26.188,26.19c14.465,0,26.191-11.726,26.191-26.19C135.798,162.966,124.072,151.24,109.607,151.24z
	 M93.566,207.549c-14.463,0-26.189,11.726-26.189,26.19c0,14.464,11.726,26.19,26.189,26.19c14.464,0,26.191-11.727,26.191-26.19
	C119.757,219.275,108.031,207.549,93.566,207.549z M96.512,266.148c-14.463,0-26.188,11.727-26.188,26.188
	c0,14.465,11.726,26.191,26.188,26.191c14.465,0,26.191-11.728,26.191-26.191C122.704,277.875,110.977,266.148,96.512,266.148z
	 M117.137,320.494c-14.463,0-26.188,11.725-26.188,26.188s11.725,26.189,26.188,26.189c14.465,0,26.191-11.726,26.191-26.189
	S131.602,320.494,117.137,320.494z M154.13,365.344c-14.463,0-26.188,11.726-26.188,26.189s11.726,26.188,26.188,26.188
	c14.465,0,26.191-11.725,26.191-26.188S168.595,365.344,154.13,365.344z M204.546,395.463c-14.463,0-26.188,11.726-26.188,26.189
	s11.725,26.188,26.188,26.188c14.465,0,26.191-11.725,26.191-26.188S219.011,395.463,204.546,395.463z M261.837,409.211
	c-14.463,0-26.189,11.727-26.189,26.191c0,14.463,11.726,26.188,26.189,26.188c14.466,0,26.192-11.727,26.192-26.188
	C288.029,420.938,276.303,409.211,261.837,409.211z M320.109,403.318c-14.463,0-26.188,11.727-26.188,26.19
	c0,14.463,11.726,26.189,26.188,26.189c14.465,0,26.19-11.728,26.19-26.189C346.301,415.045,334.574,403.318,320.109,403.318z
	 M373.473,378.766c-14.465,0-26.188,11.726-26.188,26.191c0,14.463,11.725,26.189,26.188,26.189
	c14.463,0,26.189-11.728,26.189-26.189C399.662,390.49,387.936,378.766,373.473,378.766z M418.43,340.135
	c-14.463,0-26.188,11.726-26.188,26.189s11.725,26.188,26.188,26.188c14.465,0,26.193-11.725,26.193-26.188
	S432.895,340.135,418.43,340.135z"/>
</svg>
