<?xml version="1.0" encoding="utf-8"?>
<!-- Generator: Adobe Illustrator 16.0.0, SVG Export Plug-In . SVG Version: 6.00 Build 0)  -->
<!DOCTYPE svg PUBLIC "-//W3C//DTD SVG 1.1//EN" "http://www.w3.org/Graphics/SVG/1.1/DTD/svg11.dtd">
<svg version="1.1" id="Layer_1" xmlns="http://www.w3.org/2000/svg" xmlns:xlink="http://www.w3.org/1999/xlink" x="0px" y="0px"
	 width="512px" height="512px" viewBox="0 0 512 512" enable-background="new 0 0 512 512" xml:space="preserve">
<polygon id="christmas-snowflake-icon" opacity="0.5" points="441.535,346.644 373.955,307.624 438.697,290.354 431.342,262.782 
	338.967,287.424 284.535,255.999 339.49,224.271 431.299,249.242 438.787,221.705 374.311,204.168 441.535,165.356 427.266,140.644 
	359.686,179.66 377.1,114.956 349.545,107.541 324.697,199.861 270.27,231.285 270.27,167.831 337.797,100.809 317.695,80.554 
	270.27,127.624 270.27,50 241.732,50 241.732,128.036 194.404,80.604 174.203,100.76 241.732,168.438 241.732,231.286 
	186.779,199.558 162.498,107.565 134.906,114.847 151.957,179.455 84.732,140.644 70.465,165.356 138.045,204.373 73.303,221.645 
	80.66,249.218 173.035,224.574 227.465,255.999 172.51,287.727 80.701,262.758 73.211,290.293 137.688,307.832 70.465,346.644 
	84.732,371.356 152.312,332.337 134.898,397.042 162.457,404.459 187.303,312.137 241.732,280.711 241.732,344.169 174.203,411.191 
	194.307,431.446 241.732,384.376 241.732,462 270.27,462 270.27,383.964 317.598,431.396 337.797,411.24 270.27,343.563 
	270.27,280.712 325.223,312.439 349.502,404.435 377.094,397.15 360.043,332.545 427.268,371.356 "/>
</svg>
